name rise30.2954peak35.7071fall66.7804.mot
datacolumns 19
datarows 36
range 5.05164900000000 5.10998300000000
endheader
time	ground_force1_vx	ground_force1_vy	ground_force1_vz	ground_force1_px	ground_force1_py	ground_force1_pz	ground_force2_vx	ground_force2_vy	ground_force2_vz	ground_force2_px	ground_force2_py	ground_force2_pz	ground_torque1_x	ground_torque1_y	ground_torque1_z	ground_torque2_x	ground_torque2_y	ground_torque2_z	
5.05164900000000	68.35666399999999	802.34276599999998	68.25160099999999	0.31217100000000	0.00000000000000	0.13202300000000	0.00000000000000	0.00000000000000	0.00000000000000	0.00000000000000	0.00000000000000	0.00000000000000	0.00000000000000	24.14512200000000	0.00000000000000	0.00000000000000	0.00000000000000	0.00000000000000	
5.05331800000000	67.29188400000000	802.61448199999995	68.09559700000000	0.31096100000000	0.00000000000000	0.13202900000000	0.00000000000000	0.00000000000000	0.00000000000000	0.00000000000000	0.00000000000000	0.00000000000000	0.00000000000000	24.14961800000000	0.00000000000000	0.00000000000000	0.00000000000000	0.00000000000000	
5.05498600000000	66.23493000000001	802.72248000000002	67.93536300000000	0.30978500000000	0.00000000000000	0.13203600000000	0.00000000000000	0.00000000000000	0.00000000000000	0.00000000000000	0.00000000000000	0.00000000000000	0.00000000000000	24.15346600000000	0.00000000000000	0.00000000000000	0.00000000000000	0.00000000000000	
5.05665000000000	65.18677900000000	802.66931299999999	67.77161800000000	0.30864400000000	0.00000000000000	0.13204300000000	0.00000000000000	0.00000000000000	0.00000000000000	0.00000000000000	0.00000000000000	0.00000000000000	0.00000000000000	24.15689200000000	0.00000000000000	0.00000000000000	0.00000000000000	0.00000000000000	
5.05832000000000	64.14831300000000	802.45782099999997	67.60501300000000	0.30753600000000	0.00000000000000	0.13205100000000	0.00000000000000	0.00000000000000	0.00000000000000	0.00000000000000	0.00000000000000	0.00000000000000	0.00000000000000	24.16008300000000	0.00000000000000	0.00000000000000	0.00000000000000	0.00000000000000	
5.05998500000000	63.12031600000000	802.09113800000000	67.43613100000000	0.30645900000000	0.00000000000000	0.13206000000000	0.00000000000000	0.00000000000000	0.00000000000000	0.00000000000000	0.00000000000000	0.00000000000000	0.00000000000000	24.16318800000000	0.00000000000000	0.00000000000000	0.00000000000000	0.00000000000000	
5.06165600000000	62.10348300000000	801.57268299999998	67.26548699999999	0.30541500000000	0.00000000000000	0.13206900000000	0.00000000000000	0.00000000000000	0.00000000000000	0.00000000000000	0.00000000000000	0.00000000000000	0.00000000000000	24.16631800000000	0.00000000000000	0.00000000000000	0.00000000000000	0.00000000000000	
5.06332000000000	61.09841800000000	800.90616399999999	67.09353299999999	0.30439900000000	0.00000000000000	0.13207900000000	0.00000000000000	0.00000000000000	0.00000000000000	0.00000000000000	0.00000000000000	0.00000000000000	0.00000000000000	24.16954900000000	0.00000000000000	0.00000000000000	0.00000000000000	0.00000000000000	
5.06498800000000	60.10564400000000	800.09557099999995	66.92065599999999	0.30341300000000	0.00000000000000	0.13209100000000	0.00000000000000	0.00000000000000	0.00000000000000	0.00000000000000	0.00000000000000	0.00000000000000	0.00000000000000	24.17292200000000	0.00000000000000	0.00000000000000	0.00000000000000	0.00000000000000	
5.06665400000000	59.12560100000000	799.14516800000001	66.74718700000000	0.30245300000000	0.00000000000000	0.13210300000000	0.00000000000000	0.00000000000000	0.00000000000000	0.00000000000000	0.00000000000000	0.00000000000000	0.00000000000000	24.17644600000000	0.00000000000000	0.00000000000000	0.00000000000000	0.00000000000000	
5.06831700000000	58.15865300000000	798.05948799999999	66.57339700000000	0.30151800000000	0.00000000000000	0.13211500000000	0.00000000000000	0.00000000000000	0.00000000000000	0.00000000000000	0.00000000000000	0.00000000000000	0.00000000000000	24.18010200000000	0.00000000000000	0.00000000000000	0.00000000000000	0.00000000000000	
5.06998500000000	57.20509500000000	796.84332199999994	66.39950600000000	0.30060700000000	0.00000000000000	0.13212900000000	0.00000000000000	0.00000000000000	0.00000000000000	0.00000000000000	0.00000000000000	0.00000000000000	0.00000000000000	24.18384000000000	0.00000000000000	0.00000000000000	0.00000000000000	0.00000000000000	
5.07165200000000	56.26515400000000	795.50171300000000	66.22568099999999	0.29971800000000	0.00000000000000	0.13214400000000	0.00000000000000	0.00000000000000	0.00000000000000	0.00000000000000	0.00000000000000	0.00000000000000	0.00000000000000	24.18758700000000	0.00000000000000	0.00000000000000	0.00000000000000	0.00000000000000	
5.07331500000000	55.33899400000000	794.03994000000000	66.05204500000001	0.29884900000000	0.00000000000000	0.13216000000000	0.00000000000000	0.00000000000000	0.00000000000000	0.00000000000000	0.00000000000000	0.00000000000000	0.00000000000000	24.19124300000000	0.00000000000000	0.00000000000000	0.00000000000000	0.00000000000000	
5.07498300000000	54.42672300000000	792.46350600000005	65.87867600000000	0.29799800000000	0.00000000000000	0.13217700000000	0.00000000000000	0.00000000000000	0.00000000000000	0.00000000000000	0.00000000000000	0.00000000000000	0.00000000000000	24.19468900000000	0.00000000000000	0.00000000000000	0.00000000000000	0.00000000000000	
5.07664800000000	53.52839700000000	790.77812600000004	65.70561400000000	0.29716300000000	0.00000000000000	0.13219600000000	0.00000000000000	0.00000000000000	0.00000000000000	0.00000000000000	0.00000000000000	0.00000000000000	0.00000000000000	24.19778400000000	0.00000000000000	0.00000000000000	0.00000000000000	0.00000000000000	
5.07831800000000	52.64402500000000	788.98970999999995	65.53286199999999	0.29634200000000	0.00000000000000	0.13221500000000	0.00000000000000	0.00000000000000	0.00000000000000	0.00000000000000	0.00000000000000	0.00000000000000	0.00000000000000	24.20037300000000	0.00000000000000	0.00000000000000	0.00000000000000	0.00000000000000	
5.07998200000000	51.77357400000000	787.10434799999996	65.36039300000000	0.29553400000000	0.00000000000000	0.13223600000000	0.00000000000000	0.00000000000000	0.00000000000000	0.00000000000000	0.00000000000000	0.00000000000000	0.00000000000000	24.20228400000000	0.00000000000000	0.00000000000000	0.00000000000000	0.00000000000000	
5.08165100000000	50.91697300000000	785.12829299999999	65.18815100000000	0.29473500000000	0.00000000000000	0.13225700000000	0.00000000000000	0.00000000000000	0.00000000000000	0.00000000000000	0.00000000000000	0.00000000000000	0.00000000000000	24.20333400000000	0.00000000000000	0.00000000000000	0.00000000000000	0.00000000000000	
5.08332300000000	50.07412000000000	783.06794200000002	65.01605499999999	0.29394400000000	0.00000000000000	0.13228000000000	0.00000000000000	0.00000000000000	0.00000000000000	0.00000000000000	0.00000000000000	0.00000000000000	0.00000000000000	24.20332600000000	0.00000000000000	0.00000000000000	0.00000000000000	0.00000000000000	
5.08498700000000	49.24488500000000	780.92981599999996	64.84400700000000	0.29315900000000	0.00000000000000	0.13230500000000	0.00000000000000	0.00000000000000	0.00000000000000	0.00000000000000	0.00000000000000	0.00000000000000	0.00000000000000	24.20206100000000	0.00000000000000	0.00000000000000	0.00000000000000	0.00000000000000	
5.08665500000000	48.42911500000000	778.72054700000001	64.67189100000000	0.29237800000000	0.00000000000000	0.13233000000000	0.00000000000000	0.00000000000000	0.00000000000000	0.00000000000000	0.00000000000000	0.00000000000000	0.00000000000000	24.19932900000000	0.00000000000000	0.00000000000000	0.00000000000000	0.00000000000000	
5.08831800000000	47.62664000000000	776.44685100000004	64.49957600000000	0.29159900000000	0.00000000000000	0.13235700000000	0.00000000000000	0.00000000000000	0.00000000000000	0.00000000000000	0.00000000000000	0.00000000000000	0.00000000000000	24.19492000000000	0.00000000000000	0.00000000000000	0.00000000000000	0.00000000000000	
5.08998500000000	46.83727500000000	774.11551199999997	64.32692600000000	0.29081900000000	0.00000000000000	0.13238500000000	0.00000000000000	0.00000000000000	0.00000000000000	0.00000000000000	0.00000000000000	0.00000000000000	0.00000000000000	24.18862000000000	0.00000000000000	0.00000000000000	0.00000000000000	0.00000000000000	
5.09164800000000	46.06082500000000	771.73335799999995	64.15379600000000	0.29003800000000	0.00000000000000	0.13241400000000	0.00000000000000	0.00000000000000	0.00000000000000	0.00000000000000	0.00000000000000	0.00000000000000	0.00000000000000	24.18021800000000	0.00000000000000	0.00000000000000	0.00000000000000	0.00000000000000	
5.09331400000000	45.29708900000000	769.30724699999996	63.98004000000000	0.28925200000000	0.00000000000000	0.13244400000000	0.00000000000000	0.00000000000000	0.00000000000000	0.00000000000000	0.00000000000000	0.00000000000000	0.00000000000000	24.16950400000000	0.00000000000000	0.00000000000000	0.00000000000000	0.00000000000000	
5.09498900000000	44.54586500000000	766.84403699999996	63.80551200000000	0.28846100000000	0.00000000000000	0.13247600000000	0.00000000000000	0.00000000000000	0.00000000000000	0.00000000000000	0.00000000000000	0.00000000000000	0.00000000000000	24.15627300000000	0.00000000000000	0.00000000000000	0.00000000000000	0.00000000000000	
5.09665600000000	43.80694900000000	764.35057400000005	63.63006800000000	0.28766300000000	0.00000000000000	0.13250900000000	0.00000000000000	0.00000000000000	0.00000000000000	0.00000000000000	0.00000000000000	0.00000000000000	0.00000000000000	24.14032900000000	0.00000000000000	0.00000000000000	0.00000000000000	0.00000000000000	
5.09831900000000	43.08014500000000	761.83366500000000	63.45357200000000	0.28685500000000	0.00000000000000	0.13254300000000	0.00000000000000	0.00000000000000	0.00000000000000	0.00000000000000	0.00000000000000	0.00000000000000	0.00000000000000	24.12148100000000	0.00000000000000	0.00000000000000	0.00000000000000	0.00000000000000	
5.09998200000000	42.36526000000000	759.30006000000003	63.27589500000000	0.28603700000000	0.00000000000000	0.13257800000000	0.00000000000000	0.00000000000000	0.00000000000000	0.00000000000000	0.00000000000000	0.00000000000000	0.00000000000000	24.09955000000000	0.00000000000000	0.00000000000000	0.00000000000000	0.00000000000000	
5.10165600000000	41.66211200000000	756.75643200000002	63.09691800000000	0.28520700000000	0.00000000000000	0.13261400000000	0.00000000000000	0.00000000000000	0.00000000000000	0.00000000000000	0.00000000000000	0.00000000000000	0.00000000000000	24.07436900000000	0.00000000000000	0.00000000000000	0.00000000000000	0.00000000000000	
5.10331800000000	40.97052800000000	754.20935799999995	62.91653600000000	0.28436400000000	0.00000000000000	0.13265100000000	0.00000000000000	0.00000000000000	0.00000000000000	0.00000000000000	0.00000000000000	0.00000000000000	0.00000000000000	24.04578300000000	0.00000000000000	0.00000000000000	0.00000000000000	0.00000000000000	
5.10500600000000	40.29035200000000	751.66529600000001	62.73465500000000	0.28350700000000	0.00000000000000	0.13268900000000	0.00000000000000	0.00000000000000	0.00000000000000	0.00000000000000	0.00000000000000	0.00000000000000	0.00000000000000	24.01365300000000	0.00000000000000	0.00000000000000	0.00000000000000	0.00000000000000	
5.10665000000000	39.62143800000000	749.13057100000003	62.55119800000000	0.28263500000000	0.00000000000000	0.13272800000000	0.00000000000000	0.00000000000000	0.00000000000000	0.00000000000000	0.00000000000000	0.00000000000000	0.00000000000000	23.97785400000000	0.00000000000000	0.00000000000000	0.00000000000000	0.00000000000000	
5.10832400000000	38.96365700000000	746.61135400000001	62.36610600000000	0.28174600000000	0.00000000000000	0.13276800000000	0.00000000000000	0.00000000000000	0.00000000000000	0.00000000000000	0.00000000000000	0.00000000000000	0.00000000000000	23.93827800000000	0.00000000000000	0.00000000000000	0.00000000000000	0.00000000000000	
5.10998300000000	38.31689700000000	744.11364700000001	62.17933400000000	0.28084100000000	0.00000000000000	0.13280800000000	0.00000000000000	0.00000000000000	0.00000000000000	0.00000000000000	0.00000000000000	0.00000000000000	0.00000000000000	23.89483500000000	0.00000000000000	0.00000000000000	0.00000000000000	0.00000000000000	
